<svg width="58" height="57" viewBox="0 0 58 57" fill="none" xmlns="http://www.w3.org/2000/svg">
<path d="M56.9883 22.6536C56.184 20.7832 55.174 18.9491 54.2124 17.2059C54.0733 16.9819 53.9584 16.7398 53.8374 16.5158C53.2326 15.4202 52.6279 14.3065 51.9505 13.1019C51.5876 12.4966 51.2792 11.9397 50.9889 11.4252C50.9224 11.3042 50.8679 11.1831 50.8014 11.062C50.7349 10.941 50.6805 10.8199 50.6321 10.7049C50.5577 10.5572 50.4525 10.4271 50.3236 10.3236C50.2917 10.3164 50.2611 10.3041 50.2329 10.2872C50.1713 10.2723 50.1086 10.2621 50.0454 10.257H49.9971H49.8761H49.737H49.5677C49.4932 10.2639 49.4183 10.2639 49.3439 10.257C49.2925 10.244 49.2448 10.2191 49.2048 10.1843C49.0882 10.1155 48.9937 10.0147 48.9326 9.8938C48.848 9.75458 48.7633 9.60324 48.6907 9.46402L48.6605 9.37929C48.6172 9.32111 48.5807 9.25815 48.5516 9.19165C48.4186 8.94953 48.2795 8.71345 48.1283 8.48949C48.1014 8.45079 48.0772 8.41034 48.0557 8.36842L48.0255 8.31395L47.8501 8.02342C47.8501 8.02342 47.8501 8.02342 47.8199 8.02342C47.8113 8.01957 47.802 8.01758 47.7926 8.01758C47.7833 8.01758 47.774 8.01957 47.7654 8.02342L47.5598 8.14446C46.9232 8.57839 46.4571 9.22034 46.2414 9.96038C46.2414 10.0451 46.1869 10.1178 46.1748 10.1843C45.812 11.6068 46.1748 13.1685 46.5135 14.5425C46.8427 15.8015 47.261 17.0354 47.7654 18.2349C47.9408 18.6465 48.1283 19.0763 48.3702 19.5242C48.392 19.5742 48.4205 19.621 48.4549 19.6634C48.4549 19.6937 48.4549 19.7118 48.4851 19.7481C48.5351 19.8858 48.5597 20.0314 48.5577 20.1779C48.5576 20.3826 48.5291 20.5863 48.473 20.7832C48.4004 21.0374 48.2976 21.3159 48.213 21.5519C48.1283 21.788 48.092 21.897 48.0618 22.0362C47.6807 23.3194 47.2393 24.8327 46.7071 26.358L46.5196 26.8907C45.8918 28.526 44.9601 30.0274 43.7739 31.3155C42.6361 32.5533 41.378 33.6746 40.0182 34.6628C37.3111 36.6575 35.0099 39.1517 33.2386 42.0112C31.2488 45.3041 30.4928 50.4854 31.9141 53.2819C33.3353 56.0784 36.8854 55.461 38.3611 54.6378C39.9497 53.6942 41.4732 52.6446 42.9211 51.4963C50.1422 46.1091 54.8716 41.3211 55.5913 40.3769C55.8865 40.0203 56.1085 39.6089 56.2445 39.1663C56.2767 39.0791 56.293 38.9868 56.2928 38.8939C56.4138 37.6228 56.571 36.3516 56.7041 35.0986C57.1148 31.9053 57.361 28.693 57.4419 25.4743C57.5108 24.5158 57.3641 23.5539 57.0125 22.6596L56.9883 22.6536Z" fill="#FDDBCB"/>
<path d="M14.4904 49.9357C14.5267 49.9721 14.7323 50.3292 14.8835 50.5411H14.9379C16.9398 50.42 21.5905 52.4478 24.0097 52.1209C28.1766 51.5519 26.5134 43.1624 25.9994 42.2C25.83 41.8792 25.6063 41.5947 25.3946 41.2254C25.174 40.9296 24.9721 40.6203 24.7898 40.2993C24.3607 39.5094 23.8499 38.7669 23.2658 38.0839C21.7273 36.4109 20.0002 34.922 18.1191 33.647C16.7352 32.6792 15.4507 31.5762 14.2848 30.3542C13.0712 29.0894 12.1104 27.6039 11.4544 25.9778L11.2488 25.4452C10.6803 23.938 10.2025 22.4187 9.80937 21.1415C9.74193 20.9896 9.68337 20.834 9.63399 20.6754C9.52442 20.4262 9.43345 20.1693 9.36184 19.9066C9.30069 19.7104 9.26612 19.5068 9.25903 19.3013C9.25837 19.1555 9.28082 19.0104 9.32555 18.8716C9.32855 18.8402 9.34123 18.8106 9.36184 18.7868C9.38753 18.7422 9.40977 18.6956 9.42836 18.6476C9.63399 18.1997 9.82751 17.7578 9.97871 17.3462C10.4776 16.1448 10.882 14.9062 11.1883 13.6418C11.5088 12.2677 11.8233 10.706 11.4241 9.28357C11.4241 9.21093 11.3758 9.14435 11.3576 9.05961C11.1258 8.31757 10.6479 7.67695 10.0029 7.2437C9.93165 7.19745 9.85683 7.15696 9.77914 7.12263C9.77914 7.12263 9.7489 7.12264 9.73075 7.09237C9.71261 7.06211 9.73075 7.09236 9.73075 7.12263C9.66645 7.21042 9.60979 7.30359 9.56142 7.40108L9.52512 7.4495C9.52512 7.50398 9.47069 7.55241 9.4586 7.58873C9.3195 7.81269 9.1804 8.04874 9.04735 8.29086C9.04735 8.32718 8.99292 8.41194 8.95664 8.47852L8.90825 8.58141C8.8457 8.73063 8.77084 8.87438 8.68448 9.01117C8.61876 9.12311 8.53259 9.22168 8.43047 9.30173C8.38597 9.32937 8.33948 9.35365 8.29137 9.37436C8.21789 9.39141 8.14297 9.40155 8.06761 9.40464C8.01144 9.41258 7.95443 9.41258 7.89827 9.40464C7.85817 9.4106 7.8174 9.4106 7.7773 9.40464H7.60796C7.53837 9.40535 7.4692 9.41553 7.40234 9.43489C7.36605 9.43489 7.34791 9.47121 7.31163 9.47121C7.19427 9.58581 7.09623 9.71867 7.02133 9.86465C6.97294 9.96756 6.90037 10.1068 6.85199 10.2278C6.8036 10.3489 6.73104 10.4639 6.6766 10.5668C6.38631 11.0995 6.07182 11.6685 5.75129 12.2677C5.11627 13.4783 4.54172 14.6163 3.93694 15.7179C3.81599 15.954 3.69503 16.178 3.57407 16.4019C2.64875 18.1876 1.6932 20.0338 0.937221 21.9284C0.588419 22.8293 0.453839 23.7992 0.544116 24.7612C0.646929 27.9693 1.08842 31.2258 1.49967 34.3673C1.67506 35.578 1.8444 36.8915 2.00164 38.1444C1.99992 38.2434 2.01631 38.3419 2.05002 38.435C2.19384 38.8806 2.42631 39.2924 2.73342 39.6456C3.42392 40.506 4.17582 41.3152 4.98321 42.0668C6.56389 43.5794 8.25379 44.9734 10.0392 46.2373L10.1964 46.3402C11.8026 47.3931 13.2802 48.6302 14.5992 50.0265L14.4904 49.9357Z" fill="#FDDBCB"/>
<path d="M33.9644 27.7874C33.9644 27.8177 33.8797 27.8358 33.8495 27.8722C32.2892 29.228 30.7772 29.7607 29.3741 29.4339C27.8138 29.0525 26.5437 27.2729 26.2353 26.6858C26.2003 26.6233 26.1506 26.5702 26.0906 26.5312C26.0305 26.4922 25.9619 26.4684 25.8906 26.4618C25.7899 26.4594 25.6923 26.4963 25.6184 26.5647L25.5337 26.6555C25.2029 27.162 24.7948 27.6134 24.3242 27.9932C23.9841 28.2918 23.6288 28.5727 23.2598 28.8346C23.2093 28.8796 23.1703 28.9361 23.1461 28.9993C23.1219 29.0625 23.1132 29.1305 23.1207 29.1978C23.1306 29.6244 23.0172 30.0447 22.7941 30.4084C22.7353 30.5111 22.6597 30.6032 22.5703 30.6808C22.531 30.729 22.4784 30.7648 22.4191 30.7837C22.1939 30.8489 21.9549 30.8489 21.7297 30.7837C21.5725 30.7604 21.4183 30.7198 21.27 30.6626C20.8954 30.5304 20.5 30.4669 20.1028 30.475C19.8672 30.5303 19.6219 30.5295 19.3866 30.4727C19.1514 30.4159 18.9327 30.3048 18.7481 30.1481C18.6609 30.0626 18.5436 30.0148 18.4215 30.0149C18.2645 30.0443 18.1022 30.0186 17.9619 29.9423C17.7563 29.791 17.7018 29.7365 17.6534 29.6336C17.635 29.5689 17.5995 29.5104 17.5506 29.4641C17.2782 29.1217 17.1425 28.6903 17.1696 28.2535V28.199C17.1608 28.1551 17.1608 28.1098 17.1696 28.0659C17.2063 27.9966 17.2197 27.9174 17.2077 27.8399C17.1957 27.7624 17.159 27.691 17.1031 27.6361C17.0184 27.5332 16.9821 27.4787 17.1394 27.2729L17.1878 27.2245C17.2782 27.1504 17.3827 27.0955 17.495 27.0633C17.6073 27.031 17.725 27.022 17.8409 27.0368C17.9252 27.0563 18.0052 27.0912 18.0768 27.1397C18.1856 27.17 18.2885 27.2245 18.4215 27.2729C18.62 27.32 18.8225 27.3484 19.0263 27.3576C19.0783 27.3666 19.1315 27.3666 19.1835 27.3576C19.7111 27.4279 20.2477 27.3825 20.756 27.2245C20.7986 27.2044 20.8391 27.1801 20.8769 27.1518L20.9132 27.1216L21.016 27.0187C21.4108 26.0972 21.7029 25.1351 21.8869 24.1495C22.0079 23.6532 22.1288 23.1871 22.1833 23.0539C22.2377 22.9208 22.3163 22.6726 22.401 22.485C22.4261 22.4276 22.4365 22.3649 22.4312 22.3025C22.4259 22.2402 22.4051 22.1801 22.3707 22.1278C22.3334 22.0703 22.2824 22.023 22.2222 21.9902C22.162 21.9574 22.0945 21.9402 22.026 21.9402C21.7672 21.9025 21.533 21.7658 21.3729 21.5588C20.9814 21.0789 20.6653 20.5421 20.4354 19.9669C20.3816 19.8675 20.3351 19.7644 20.2963 19.6582C20.2238 19.5371 20.1754 19.4161 20.1089 19.3132C20.006 19.0892 19.9032 18.8834 19.8125 18.7079C19.7668 18.5738 19.7325 18.4361 19.7097 18.2963C19.6735 18.1444 19.5832 18.011 19.4557 17.921C19.4194 17.8847 19.4013 17.8847 19.3892 17.8302C19.3771 17.7757 19.4557 17.5094 19.5404 17.4065C19.5918 17.3291 19.6211 17.2391 19.625 17.1462C19.6093 17.0515 19.6184 16.9544 19.6512 16.8643C19.6841 16.7741 19.7396 16.694 19.8125 16.6317C19.8224 16.6151 19.8356 16.6007 19.8512 16.5892C19.8667 16.5778 19.8844 16.5696 19.9032 16.5651L19.9516 16.5106C20.0011 16.4777 20.0375 16.4284 20.0544 16.3714C20.0907 16.3411 20.1209 16.2867 20.1754 16.2382C20.2378 16.1687 20.3243 16.1254 20.4173 16.1172C20.4768 16.1037 20.5339 16.0812 20.5866 16.0506C20.756 15.9295 20.8588 15.9114 20.8951 15.9295C20.9484 15.964 21.0094 15.9848 21.0727 15.99C21.136 15.9953 21.1996 15.9849 21.2579 15.9598C21.3027 15.9514 21.3433 15.9279 21.3729 15.8932C21.4294 15.8428 21.4713 15.7779 21.4938 15.7056C21.5222 15.625 21.563 15.5495 21.6148 15.4816L21.651 15.4453C21.7523 15.3704 21.8709 15.3225 21.9958 15.3061C22.1167 15.3061 22.3405 15.3061 22.3889 15.5482C22.4205 15.6994 22.4327 15.8539 22.4252 16.0082V16.0809C22.4158 16.2447 22.4448 16.4084 22.5098 16.559C22.5639 16.6371 22.6224 16.7119 22.6852 16.783C22.7008 16.8159 22.7235 16.8449 22.7518 16.8677C22.8064 16.973 22.853 17.0822 22.8909 17.1946C22.9991 17.5104 23.0563 17.8414 23.0602 18.1752C23.0651 18.2503 23.0917 18.3223 23.1368 18.3825C23.1819 18.4427 23.2435 18.4885 23.3142 18.5142C23.3813 18.5467 23.4567 18.5577 23.5303 18.5458C23.6039 18.5339 23.672 18.4996 23.7255 18.4476C24.7233 17.6062 25.7696 17.5033 26.7131 18.1873C27.0585 18.4469 27.3282 18.7943 27.4941 19.1935C27.66 19.5927 27.7161 20.029 27.6565 20.4572C27.6503 20.5415 27.6695 20.6258 27.7115 20.6991C27.7535 20.7725 27.8165 20.8316 27.8924 20.8688C27.964 20.8955 28.0414 20.9028 28.1168 20.8901C28.1922 20.8773 28.2629 20.8449 28.3218 20.7962L28.3581 20.7659L28.6847 20.439C28.7365 20.3701 28.8 20.3107 28.8721 20.2635C29.4775 19.7654 30.1518 19.3576 30.874 19.0529C30.9117 19.0365 30.9464 19.014 30.9768 18.9863C31.0236 18.9392 31.0589 18.882 31.0799 18.8189C31.1009 18.7559 31.107 18.6889 31.0977 18.6231C31.0277 18.0083 30.9994 17.3895 31.0131 16.7709C31.0237 16.6922 31.0073 16.6123 30.9666 16.5442C30.926 16.476 30.8635 16.4236 30.7893 16.3956C30.2022 16.0565 29.6717 15.6276 29.2169 15.1245C28.7141 14.549 28.4331 13.8127 28.4246 13.0483C28.4675 12.4616 28.6433 11.8923 28.9387 11.3837C29.0723 11.1602 29.1703 10.9172 29.229 10.6634C29.2707 10.0373 29.1476 9.41116 28.8721 8.84748C28.7693 8.59325 28.6847 8.35113 28.6121 8.14532C28.3523 7.35533 28.2375 6.52477 28.2734 5.69385C28.4273 4.28315 29.113 2.98429 30.1906 2.06203C30.4714 1.82908 30.7641 1.61087 31.0675 1.40829C31.0977 1.40829 31.1159 1.40829 31.1159 1.37197C31.1896 1.31825 31.2395 1.23792 31.255 1.14802C31.2948 1.05863 31.3524 0.978314 31.4243 0.911957C31.4606 0.875639 31.4788 0.857463 31.4969 0.857463C31.5386 0.857728 31.5798 0.848618 31.6175 0.830808C31.6551 0.812997 31.6883 0.78695 31.7146 0.754572C31.7397 0.740305 31.7617 0.721185 31.7794 0.698324C31.797 0.675462 31.81 0.649315 31.8174 0.621405C31.8535 0.536481 31.9071 0.460157 31.9747 0.397445C32.1684 0.256197 32.3918 0.160962 32.6278 0.118992C33.5916 -0.0859807 34.5928 -0.0253062 35.5247 0.294535C35.5584 0.303813 35.5939 0.303813 35.6276 0.294535C36.2771 0.320483 36.9238 0.393318 37.5629 0.512454C38.9367 0.736236 40.2429 1.26577 41.3851 2.06203C42.4622 2.88251 43.2194 4.05352 43.526 5.37304C43.867 6.87623 43.749 8.44727 43.1873 9.88254C43.1549 9.96856 43.1521 10.063 43.1795 10.1508C43.2069 10.2385 43.2629 10.3146 43.3385 10.3668C43.5084 10.4913 43.6368 10.6642 43.707 10.8629C43.7771 11.0616 43.7857 11.2769 43.7316 11.4805C43.6218 11.8747 43.3964 12.2268 43.0845 12.4914C42.9273 12.6306 42.3951 13.0604 41.875 12.8364C41.8146 12.8113 41.749 12.8009 41.6838 12.8061C41.6186 12.8114 41.5556 12.8322 41.5 12.8667C41.5 12.8667 41.4637 12.8667 41.4456 12.903C41.4045 12.9356 41.3712 12.9769 41.3481 13.0241C41.3251 13.0712 41.3129 13.1229 41.3125 13.1754C41.2469 13.8459 40.9766 14.4799 40.5384 14.9913C40.313 15.2835 40.0598 15.5531 39.7824 15.7964C39.4084 16.1417 38.9737 16.4146 38.5003 16.6014C38.4458 16.6014 38.4156 16.6377 38.3793 16.6559C38.343 16.674 38.343 16.6559 38.3249 16.6559C38.2034 16.7793 38.1353 16.9457 38.1353 17.119C38.1353 17.2922 38.2034 17.4586 38.3249 17.582C38.3249 17.582 38.3249 17.582 38.3249 17.6183C38.5698 18.0101 38.7285 18.4496 38.7906 18.9076C38.7751 20.5881 38.2684 22.2273 37.333 23.6229C36.375 25.1514 35.2018 26.5337 33.8495 27.7269L33.9644 27.7874Z" fill="#FDDBCB"/>
<path d="M14.1516 50.2988C14.2145 50.3859 14.2876 50.4651 14.3694 50.5348C14.5629 50.5348 14.7504 50.5348 14.9741 50.5711C15.141 50.5706 15.3073 50.5889 15.4701 50.6256C13.9944 47.7262 11.2003 46.0072 8.71464 44.052C7.20408 42.8607 5.78863 41.5533 4.48117 40.1418C3.95577 39.6148 3.52601 39.0003 3.21113 38.3259C3.0604 37.8448 2.95709 37.3501 2.90269 36.8489C2.75149 35.5778 2.59425 34.3309 2.42491 33.0779C2.13462 30.7959 1.10649 22.933 1.7536 21.4076C2.47329 19.743 5.46092 13.6719 6.10803 12.4491C6.55557 11.6259 7.00311 10.7845 7.43251 9.94318C7.44712 9.90453 7.4698 9.86946 7.49903 9.84029C7.54923 9.83396 7.60003 9.83396 7.65023 9.84029C7.81242 9.8813 7.98123 9.88903 8.14649 9.86302C8.31174 9.83702 8.47004 9.77781 8.61183 9.68896C8.7951 9.58988 8.9399 9.43216 9.02309 9.24102C9.88188 6.99535 10.6681 8.60546 10.8374 9.17445C10.8374 9.22287 10.8919 9.29551 10.91 9.36209C11.2487 10.6514 10.9584 12.1404 10.6681 13.4297C10.37 14.6678 9.9798 15.8817 9.50086 17.0616C9.34966 17.4732 9.16218 17.8848 8.95656 18.3266L8.90212 18.4295C8.87192 18.491 8.84957 18.5561 8.8356 18.6232C8.76724 18.8177 8.73248 19.0224 8.73278 19.2285C8.74265 19.4827 8.78327 19.7347 8.85374 19.9791C8.93571 20.2585 9.03262 20.5333 9.14404 20.8023C9.20489 20.9417 9.25542 21.0853 9.29524 21.2321C9.70649 22.5214 10.1903 24.0286 10.7528 25.5782L10.789 25.6448L10.9584 26.0927C11.5632 27.6544 11.8716 29.6458 13.2082 31.0864C14.2544 32.2789 21.3848 36.6734 22.9573 38.4893C23.513 39.1455 23.9994 39.8575 24.4087 40.6139C24.6023 40.9589 24.826 41.2676 25.0135 41.5763C25.2349 41.878 25.4369 42.1934 25.6183 42.5206C26.1409 43.5114 26.5468 44.5595 26.8279 45.644C27.1188 46.6859 27.3431 47.7453 27.4992 48.8158C27.5316 48.9858 27.5538 49.1576 27.5657 49.3303C27.6685 49.8993 27.7532 51.9936 27.8258 52.8471C27.9104 52.8168 27.9769 52.7805 28.0616 52.7442C28.3064 52.6255 28.5276 52.4635 28.7148 52.266C28.6785 51.5941 28.6301 50.0687 28.5938 49.76C28.5454 49.1911 28.491 48.7673 28.4729 48.6463C28.3082 47.535 28.0739 46.4352 27.7713 45.3534C27.4588 44.1885 27.0229 43.0603 26.471 41.9879C26.1082 41.3161 25.6485 40.7168 25.2615 40.0631C24.8234 39.2427 24.2961 38.4733 23.689 37.769C22.1034 36.0375 20.319 34.4995 18.373 33.1868C15.7664 31.3346 13.1114 28.9134 11.8776 25.7537L11.672 25.2392C11.1519 23.8349 10.6923 22.3943 10.2447 20.9657C10.1238 20.6086 9.91816 20.1607 9.80325 19.7551C9.75843 19.605 9.72806 19.451 9.71254 19.2951C9.71183 19.2113 9.73045 19.1284 9.76696 19.053C9.76696 19.0046 9.81535 18.9501 9.83349 18.9017C10.0391 18.4538 10.2447 18.0058 10.4383 17.5458C10.9259 16.3092 11.33 15.0413 11.6478 13.7505C11.9926 12.2615 12.301 10.6272 11.8897 9.11997C11.8535 9.03523 11.8353 8.95047 11.8051 8.85968C11.5319 8.00716 10.9747 7.27429 10.2266 6.78349C10.1419 6.73507 10.0512 6.66848 9.9363 6.61401C9.84146 6.56216 9.73586 6.53316 9.62787 6.52927C9.61931 6.52543 9.61002 6.52344 9.60064 6.52344C9.59126 6.52344 9.58199 6.52543 9.57343 6.52927C9.46087 6.57848 9.36594 6.66081 9.30128 6.76533C9.2202 6.87238 9.15124 6.9881 9.09566 7.11036C9.06185 7.15961 9.03346 7.21239 9.01099 7.26775C8.87189 7.50381 8.71464 7.74592 8.58159 7.98804C8.52971 8.09456 8.48329 8.20366 8.44249 8.31491C8.37597 8.42992 8.30339 8.56913 8.23687 8.67204C8.20413 8.72992 8.16341 8.78291 8.11591 8.82942C8.11591 8.82942 8.06753 8.82942 8.03124 8.82942C7.99107 8.8343 7.95045 8.8343 7.91028 8.82942H7.65627H7.49903L7.24502 8.87784C7.19059 8.91416 7.12406 8.93232 7.06963 8.96259C6.85566 9.11431 6.68981 9.32443 6.59186 9.56789C6.45276 9.80396 6.33785 10.0824 6.23504 10.27C5.9266 10.839 5.63025 11.4201 5.32181 11.983C4.71703 13.1331 4.11225 14.2832 3.50747 15.4333C2.44305 17.4792 1.3484 19.5372 0.483558 21.6982C0.127967 22.665 -0.0123816 23.6979 0.0723102 24.7247C0.21141 29.2221 0.985525 33.7013 1.51169 38.1624C1.51169 38.2835 1.56612 38.4166 1.58427 38.5195C1.75567 39.0294 2.02249 39.5018 2.37048 39.9118C3.07775 40.7935 3.84567 41.6248 4.66865 42.3995C6.26519 43.9436 7.97994 45.3603 9.79721 46.6367C11.4167 47.7031 12.9118 48.9477 14.2544 50.3472L14.1516 50.2988Z" fill="white"/>
<path d="M7.36032 10.0397C7.62038 10.0397 9.02347 13.5384 6.98535 17.6907C7.17283 17.9631 7.89253 16.9886 8.34007 15.9596C9.3682 13.5384 9.70688 11.6498 9.12628 10.3666C8.54569 9.08332 7.826 8.70197 7.48128 8.97436C7.13655 9.24674 7.36032 10.0397 7.36032 10.0397Z" fill="white"/>
<path d="M4.77148 20.2025C4.77148 20.2025 6.91241 24.2822 6.98499 24.7483C7.05756 25.2144 6.53746 25.7591 6.53746 25.7591C6.53746 25.7591 8.01312 25.2628 7.82563 24.3548C7.63815 23.4469 6.08992 20.4083 5.71495 20.148C5.33999 19.8877 4.77148 20.2025 4.77148 20.2025Z" fill="white"/>
<path d="M25.1529 41.6002C25.1529 41.6002 20.8711 37.9684 15.9663 36.552C14.5088 36.1222 11.9021 31.3887 11.3034 29.2581C10.7047 27.1274 7.19091 20.1785 5.5459 20.1483C7.203 19.4643 10.5293 24.3006 11.2853 27.0487C12.0412 29.7968 15.1438 34.3124 16.5166 34.9177C17.8895 35.523 23.647 37.5265 25.6851 41.2794C27.7232 45.0323 25.1529 41.576 25.1529 41.576V41.6002Z" fill="white"/>
<path d="M57.3513 22.4483C57.1759 21.843 56.9884 21.1954 56.7465 20.5961C56.1417 19.101 55.1317 17.9207 54.3637 16.5466C53.8314 15.6024 53.3658 14.6218 52.8336 13.6654C52.6824 13.3869 52.507 13.0964 52.3558 12.8059C52.0292 12.2369 51.7208 11.674 51.3942 11.105C51.2914 10.9173 51.1704 10.6449 51.0374 10.4028C50.9028 10.1023 50.6549 9.86733 50.3479 9.74907L50.0939 9.70066H49.9548C49.8701 9.70066 49.7673 9.70066 49.6826 9.73697H49.477C49.4407 9.73697 49.4105 9.66433 49.3561 9.59775C49.3016 9.53116 49.217 9.35563 49.1504 9.24062C49.1143 9.1256 49.0635 9.01574 48.9992 8.91377C48.8601 8.67165 48.7029 8.42953 48.5698 8.19346C48.5336 8.19346 48.5154 8.10266 48.467 8.03607C48.4057 7.91689 48.3371 7.80165 48.2614 7.69104C48.1876 7.60426 48.0997 7.53059 48.0014 7.47314H47.953H47.9167C47.8091 7.49085 47.7049 7.52558 47.6082 7.57604C47.5054 7.62446 47.4208 7.6971 47.3361 7.72736C46.5973 8.23327 46.0566 8.97982 45.806 9.83988C45.7782 9.92305 45.756 10.008 45.7395 10.0941C45.3464 11.6255 45.6911 13.2538 46.0661 14.7307C46.4007 16.0182 46.8313 17.2787 47.3542 18.5018C47.5417 18.9497 47.7473 19.4158 47.959 19.8455C47.9893 19.894 48.0074 19.9485 48.0437 19.9969C48.0763 20.0734 48.0927 20.1558 48.0921 20.239C48.0874 20.4017 48.0588 20.5628 48.0074 20.7172C47.9046 21.1288 47.699 21.5949 47.5961 21.9278C47.1849 23.3684 46.7555 24.809 46.2596 26.2194C46.2112 26.3889 46.1386 26.5765 46.0721 26.752C44.923 29.9238 42.2983 32.3814 39.7461 34.282C37.8333 35.6299 36.0838 37.1961 34.5329 38.9489C33.9456 39.6665 33.4348 40.4434 33.0088 41.2672C32.6459 41.9331 32.2044 42.5384 31.8597 43.2224C31.325 44.2966 30.919 45.4303 30.6502 46.6C30.3728 47.692 30.1608 48.7997 30.0151 49.917C30.0151 50.0199 30.0514 54.82 30.0151 55.9035C30.0904 55.962 30.1715 56.0127 30.2571 56.0548C30.4091 56.1492 30.5772 56.2148 30.753 56.2485C30.8921 56.2788 31.0433 56.2969 31.2005 56.3332C31.1461 55.2013 30.8921 51.1518 30.8921 51.1155C30.9405 50.5102 30.9767 50.1349 30.9949 50.0683C31.1292 48.9934 31.3312 47.9279 31.5997 46.8784C31.8671 45.7924 32.2524 44.739 32.7488 43.7369C32.9158 43.4045 33.1036 43.083 33.3112 42.7744C33.5047 42.4657 33.7104 42.1691 33.916 41.7999C34.2983 41.0313 34.7692 40.3101 35.3191 39.6511C36.8145 37.9638 38.5011 36.4565 40.3448 35.1597C41.7314 34.1479 43.0121 32.998 44.167 31.7276C45.4048 30.3976 46.3759 28.842 47.0277 27.1455L47.1849 26.6976L47.2151 26.631C47.7473 25.0875 48.213 23.5621 48.5698 22.2728C48.612 22.126 48.6645 21.9824 48.7271 21.843C48.8118 21.5888 48.9146 21.2983 48.9992 21.0017C49.0636 20.7565 49.0982 20.5045 49.1021 20.2511C49.0963 20.0455 49.0617 19.8417 48.9992 19.6458C48.9749 19.5855 48.9466 19.5268 48.9146 19.4702L48.8601 19.3674C48.6459 18.9581 48.458 18.5355 48.2977 18.1023C47.809 16.9219 47.4048 15.7082 47.0881 14.4705C46.695 12.9088 46.2656 10.9173 47.1547 9.4767C47.2104 9.38644 47.2889 9.31244 47.3823 9.26212C47.4756 9.2118 47.5805 9.18692 47.6865 9.18999C47.7925 9.19305 47.8958 9.22397 47.9861 9.2796C48.0764 9.33523 48.1505 9.41363 48.2009 9.50696C48.3582 9.76724 48.4912 10.0215 48.6485 10.2636C48.7463 10.4182 48.8737 10.5519 49.0234 10.657C48.8884 10.7611 48.7683 10.8833 48.6666 11.0202C47.826 12.0977 48.5759 16.3529 50.4144 18.1749C49.8455 16.7151 49.5088 15.1751 49.4165 13.6109C49.35 11.6013 50.4447 10.9657 50.7713 11.795C51.3415 13.1068 52.0065 14.3753 52.761 15.5903C53.4988 16.8009 54.3032 18.0115 54.9926 19.2947C55.4413 20.1251 55.8196 20.9917 56.1236 21.8854C57.4057 25.6444 55.5914 38.2286 55.0229 40.0445C54.7326 40.9706 51.8357 44.0274 49.4528 45.7949C47.07 47.5624 44.548 49.2572 42.8547 51.6966C46.7518 49.3583 50.3784 46.5954 53.6682 43.4584C54.7025 42.5074 55.5765 41.3955 56.2566 40.1656C57.1698 38.3497 57.3392 36.2553 57.5267 34.2275C57.8049 31.2797 58.1617 28.3258 57.9198 25.372C57.8355 24.4078 57.6819 23.4509 57.4601 22.5089L57.3513 22.4483Z" fill="white"/>
<path d="M53.0148 21.0567C53.0148 21.0567 50.9707 25.1788 50.9042 25.6389C50.9335 26.0225 51.0986 26.3831 51.3698 26.6558C51.3698 26.6558 49.876 26.1897 50.0454 25.2818C50.2147 24.3738 51.7085 21.2807 52.0714 21.0446C52.4343 20.8086 53.0148 21.0749 53.0148 21.0749V21.0567Z" fill="white"/>
<path d="M33.1119 42.7988C33.1119 42.7988 35.3375 39.3849 41.4397 37.4479C43.3811 36.8426 46.7376 32.2968 47.288 30.1843C47.8383 28.0718 50.7171 21.3832 52.3621 21.3287C50.6808 20.675 47.3545 25.2753 46.6529 28.0355C45.9514 30.7957 42.9698 35.3839 41.6151 36.0134C40.2604 36.6429 34.5331 38.7433 32.5797 42.5385C30.6262 46.3338 33.1119 42.8109 33.1119 42.8109V42.7988Z" fill="white"/>
<path d="M39.97 10.7961C40.2059 11.468 39.4499 12.3275 38.319 12.7028C37.188 13.0781 36.0934 12.842 35.8696 12.152C35.6458 11.4619 36.3837 10.6266 37.5146 10.2513C38.6455 9.87602 39.7462 10.1121 39.97 10.7961ZM38.6153 11.2622C38.7239 11.2726 38.8323 11.2406 38.918 11.173C39.0036 11.1053 39.0598 11.0071 39.0749 10.899C39.0749 10.6932 38.8693 10.5418 38.6153 10.5418C38.3613 10.5418 38.1496 10.6932 38.1496 10.899C38.1661 11.0076 38.2236 11.1058 38.3102 11.1734C38.3968 11.2409 38.506 11.2727 38.6153 11.2622Z" fill="#FBCCC6"/>
<path d="M22.4432 28.9493C22.4638 29.006 22.4635 29.0682 22.4425 29.1248C22.4214 29.1813 22.3809 29.2285 22.3283 29.258C22.2073 29.3306 22.0501 29.3306 22.0017 29.258C21.9533 29.1853 22.0017 29.04 22.1226 28.9493C22.2436 28.8585 22.3948 28.8827 22.4432 28.9493Z" fill="white"/>
<path d="M30.6382 12.6847C30.7289 12.6126 30.8368 12.5653 30.9512 12.5472C31.0657 12.5292 31.1828 12.5411 31.2913 12.5819C31.4356 12.4132 31.5149 12.1986 31.5151 11.9766C31.5151 11.2744 30.5535 10.6873 29.356 10.6873H29.2895C29.2127 10.9058 29.1197 11.1182 29.0113 11.3228C28.7875 11.801 28.5819 12.0068 28.6182 12.5334C28.6182 12.5879 28.6182 12.5334 28.6182 12.6061C28.6182 12.6787 28.7392 12.8421 29.3197 13.0358C29.6191 13.1275 29.9341 13.1564 30.2451 13.1206C30.3208 12.9313 30.4514 12.769 30.62 12.6545L30.6382 12.6847Z" fill="#FBCCC6"/>
<path d="M32.2346 1.20831C32.3564 1.57058 32.6058 1.87609 32.9361 2.06783C33.2729 2.24359 33.6305 2.37581 34.0006 2.46129L32.8696 2.61262C32.6488 2.65774 32.4234 2.67603 32.1983 2.66709C31.8812 2.60688 31.5976 2.43131 31.4022 2.17425C31.2068 1.91718 31.1134 1.5968 31.1399 1.27488C31.1756 1.03809 31.2718 0.814522 31.419 0.625781C31.5663 0.437039 31.7597 0.289509 31.9806 0.197443C32.2164 0.0945412 32.3737 0.106645 32.3193 0.403244C32.2648 0.699843 32.1318 0.881444 32.2346 1.20831Z" fill="white"/>
<path d="M29.6462 9.86974C29.5756 9.95173 29.526 10.0497 29.5018 10.1552C29.4776 10.2606 29.4794 10.3704 29.5071 10.475C29.6099 10.7172 29.9183 10.8019 30.1784 10.8382C30.4375 10.8631 30.699 10.8343 30.9465 10.7535C31.0729 10.7089 31.1887 10.6386 31.2866 10.5469C31.3845 10.4552 31.4622 10.3442 31.515 10.2208C31.5577 10.099 31.5645 9.96736 31.5345 9.84176C31.5044 9.71616 31.4389 9.60189 31.3456 9.51262C31.069 9.35897 30.7473 9.30752 30.4366 9.36728C30.126 9.42703 29.8462 9.59417 29.6462 9.83949V9.86974Z" fill="white"/>
<path d="M36.0933 10.1606C36.1416 10.3543 36.3654 10.4391 36.5529 10.4754C36.8655 10.5238 37.1837 10.5238 37.4963 10.4754C37.7134 10.452 37.9212 10.375 38.1011 10.2514C38.1893 10.1888 38.2615 10.1063 38.3119 10.0107C38.3623 9.91498 38.3896 9.80877 38.3914 9.7006C38.3914 9.14978 37.5326 8.84107 37.0549 8.98029C36.7101 9.08319 35.9904 9.78535 36.1114 10.1606H36.0933Z" fill="white"/>
<path d="M39.9516 2.83642C39.8791 3.12696 39.3468 3.24802 38.8207 3.09669C38.2945 2.94537 37.8772 2.59429 37.9438 2.30375C38.0103 2.0132 38.5485 1.89213 39.0928 2.03135C39.6371 2.17057 40.0363 2.54587 39.9516 2.83642Z" fill="white"/>
<path d="M48.9085 9.99121C48.9267 9.97305 48.963 9.94277 48.963 9.94277V9.93672L48.9992 9.9004C48.963 9.88224 48.963 9.84593 48.963 9.77935C48.9344 9.68598 48.8871 9.59945 48.8239 9.52511C48.773 9.43482 48.7165 9.34788 48.6545 9.26484C48.3945 8.83507 48.1405 8.3932 47.8502 7.97554C47.428 8.15806 47.061 8.44817 46.7857 8.81692C46.5185 9.20135 46.3257 9.63249 46.2173 10.088C45.9992 11.0339 45.9766 12.0144 46.1507 12.9693C46.4848 14.7235 47.0017 16.4378 47.6929 18.0841C47.7957 18.3262 47.9167 18.5502 48.0195 18.7863C48.2433 19.2887 48.5154 19.7487 48.7392 20.2269C48.9285 20.6225 48.9775 21.0708 48.8783 21.498C48.7936 21.9157 48.6908 22.3091 48.5819 22.7086C48.467 23.2352 48.3098 23.7558 48.1586 24.2824C48.1462 24.3662 48.1218 24.4478 48.086 24.5245C48.6689 23.6399 49.2988 22.7872 49.9729 21.9702C50.112 21.7946 50.2814 21.6251 50.4023 21.4375C50.4397 21.3795 50.4682 21.3162 50.487 21.2498C50.4966 21.1978 50.4966 21.1445 50.487 21.0925C50.4766 21.0121 50.4766 20.9307 50.487 20.8503C50.4507 20.578 50.4507 20.2209 50.4507 19.8577V19.8576C50.4533 19.5426 50.4021 19.2294 50.2995 18.9315C50.0758 18.3989 49.6161 17.9207 49.3379 17.4062C49.0008 16.7679 48.7195 16.1016 48.4973 15.4147C48.0418 14.0919 47.9417 12.6724 48.207 11.2986C48.2428 11.1323 48.2955 10.9701 48.3642 10.8144C48.4304 10.657 48.5224 10.5117 48.6364 10.3847C48.7446 10.2666 48.8362 10.1342 48.9085 9.99121Z" fill="#E9838D"/>
<path d="M45.8846 29.4638C46.1838 28.3075 46.6076 27.1872 47.1486 26.1225L47.1426 26.1286C47.3845 25.2892 47.6083 24.466 47.8139 23.659C47.9348 23.2413 48.0376 22.8418 48.1405 22.4181C48.2433 21.9944 48.3461 21.6009 48.4308 21.2075V21.1409C48.4457 21.0126 48.4333 20.8827 48.3945 20.7595C48.1707 21.6009 47.9348 22.4241 47.6748 23.2655C47.2524 24.8759 46.7148 26.4537 46.0661 27.9869C45.267 29.5569 44.1914 30.9698 42.891 32.1574C41.4565 33.4873 39.9525 34.74 38.3853 35.9103C37.5693 36.552 36.7899 37.2391 36.0509 37.9683C35.3558 38.5998 34.7349 39.3086 34.2002 40.0808C35.377 38.9713 36.6971 38.0246 38.1253 37.2662C38.8743 36.8593 39.6479 36.4995 40.4416 36.1887C40.6496 36.1092 40.8615 36.0405 41.0766 35.9829C41.289 35.9078 41.492 35.8083 41.6814 35.6863C42.6723 34.8081 43.5282 33.7883 44.2215 32.6598C44.9439 31.6909 45.5055 30.6117 45.8846 29.4638Z" fill="#E9838D"/>
<path d="M8.59373 8.85899C8.61474 8.76633 8.65606 8.67951 8.71468 8.60478C8.78121 8.50187 8.83564 8.41108 8.88402 8.32634C9.12015 7.88573 9.37852 7.45741 9.65814 7.04308C10.0857 7.20429 10.459 7.48343 10.7347 7.84815C11.0195 8.2269 11.2252 8.65922 11.3394 9.11929C11.5817 10.0545 11.6209 11.0307 11.4543 11.9824C11.1746 13.7452 10.6979 15.4711 10.0331 17.1274L9.72467 17.8478C9.51904 18.3502 9.2469 18.8102 9.04127 19.3065C8.86224 19.7059 8.82594 20.1547 8.93846 20.5777C9.02313 20.9711 9.12594 21.3706 9.2469 21.7883C9.37995 22.321 9.55533 22.8355 9.70653 23.3621C9.70653 23.4347 9.76096 23.5195 9.77911 23.6042C9.17432 22.7144 8.5272 21.873 7.8559 21.068C7.69647 20.9074 7.54892 20.7354 7.41441 20.5535C7.36751 20.4964 7.33255 20.4306 7.31159 20.3598C7.30239 20.3097 7.30239 20.2585 7.31159 20.2084V19.9663C7.31159 19.6939 7.31159 19.3308 7.31159 18.9736C7.3032 18.6596 7.34819 18.3464 7.44465 18.0475C7.66842 17.5148 8.11596 17.0366 8.36996 16.504C8.69493 15.8583 8.96404 15.186 9.17432 14.4944C9.60527 13.1647 9.67622 11.7444 9.37995 10.3783C9.33162 10.2142 9.2751 10.0526 9.21061 9.89408C9.14447 9.73663 9.05249 9.59136 8.93846 9.4643C8.83037 9.3484 8.73319 9.22277 8.64816 9.08901C8.61187 9.05269 8.59373 9.0406 8.59373 9.02244C8.59373 9.00428 8.59373 9.02244 8.55744 9.02244C8.52116 9.02244 8.55744 8.95585 8.59373 8.90137V8.85899ZM10.1722 22.3088C10.6296 23.9155 11.2016 25.4873 11.8837 27.0121C12.7209 28.5612 13.8244 29.9504 15.1435 31.116C16.6096 32.4251 18.1439 33.6555 19.7399 34.8023C20.5726 35.4251 21.3682 36.0961 22.1227 36.8119C22.8239 37.4328 23.4546 38.1291 24.0036 38.8881C22.8059 37.8008 21.4699 36.8768 20.0302 36.14C19.256 35.7647 18.488 35.4016 17.6957 35.111L17.0486 34.9052C16.834 34.8467 16.6299 34.7548 16.4438 34.6328C15.4343 33.7699 14.558 32.7623 13.8432 31.6426C13.1018 30.6831 12.5161 29.6128 12.1075 28.4708C11.7743 27.3165 11.3202 26.2006 10.7528 25.1417L10.0331 22.6902L9.67629 21.4796C9.57347 21.0801 9.47067 20.6866 9.37995 20.269C9.37555 20.247 9.37555 20.2244 9.37995 20.2024C9.36486 20.0757 9.36486 19.9477 9.37995 19.821C9.64001 20.6443 9.90006 21.4856 10.1722 22.3088ZM13.9581 50.2981C14.0387 50.3708 14.1136 50.4498 14.1819 50.5341C14.3694 50.5341 14.5448 50.5341 14.7323 50.5341C14.3558 50.0494 13.952 49.5866 13.5227 49.148C11.7567 47.3805 9.64605 46.1215 7.74704 44.5659C5.8986 43.1103 4.21348 41.4582 2.72129 39.6387C2.38958 39.2459 2.13883 38.7912 1.98347 38.301C1.93508 38.1133 1.89879 37.9075 1.8625 37.6957C1.74155 36.4851 1.57221 35.3108 1.43311 34.1244C1.12467 31.6547 0.82833 29.1851 0.646895 26.6973C0.592465 26.0133 0.489652 25.2567 0.477557 24.5001C0.428249 23.7762 0.514394 23.0495 0.731564 22.3573C1.62028 20.0911 2.67549 17.8938 3.88853 15.7837C4.49331 14.6517 5.04971 13.538 5.65449 12.4363C5.94478 11.8916 6.25927 11.3589 6.50723 10.8262C6.60285 10.6559 6.68377 10.4777 6.74914 10.2936C6.85196 10.1059 6.93662 9.90012 7.03944 9.73063C7.09579 9.6403 7.16507 9.55873 7.24507 9.48851C7.33334 9.42851 7.42638 9.37587 7.52326 9.33113C7.6663 9.28178 7.82173 9.28178 7.96476 9.33113C8.11751 9.39185 8.25412 9.48717 8.36391 9.60958C8.59054 9.88124 8.75931 10.1964 8.85984 10.5357C8.85984 10.566 8.85984 10.6204 8.85984 10.6567C9.07583 11.8578 8.99907 13.0933 8.63607 14.2583C8.32637 15.3311 7.85747 16.3514 7.24507 17.2848C7.1347 17.4291 7.03754 17.5831 6.95477 17.7449C6.88065 17.9257 6.83968 18.1185 6.83381 18.3138C6.83381 18.9192 6.78543 19.5245 6.74914 20.1661C6.41572 19.9703 6.04699 19.8422 5.66405 19.7892C5.28111 19.7362 4.89148 19.7594 4.5175 19.8574C4.09229 19.995 3.72171 20.2642 3.45913 20.6261C3.20979 20.9674 3.04031 21.3605 2.96321 21.7762C2.89693 22.1905 2.88473 22.6117 2.92693 23.0292C3.02055 23.9123 3.19258 24.7854 3.44098 25.638C3.62847 26.2736 3.83409 26.9092 4.04577 27.5266C4.44378 28.8339 4.95998 30.1022 5.58796 31.3158C5.50329 31.3521 5.33396 31.455 5.12833 31.5579C4.92271 31.6608 4.62636 31.8666 4.40864 32.024C4.27615 32.1199 4.14896 32.2229 4.02762 32.3327C3.98727 32.3787 3.95274 32.4295 3.92481 32.484V32.5687C3.92481 32.5687 3.92481 32.5687 3.92481 32.6051C3.92481 32.6414 3.9611 32.6414 3.97924 32.6414H4.02762C4.07982 32.6482 4.13268 32.6482 4.18487 32.6414C4.3788 32.5646 4.56679 32.4735 4.74732 32.369L5.40048 32.024C5.52144 31.9695 5.64239 31.9211 5.70892 31.8847C5.73711 31.8866 5.76539 31.8866 5.79359 31.8847C5.90667 31.8988 6.01031 31.955 6.08389 32.0421C6.18705 32.1558 6.28395 32.275 6.37418 32.3993C6.57981 32.6959 6.7552 33.0046 6.87615 33.2104C7.16645 33.6341 7.4386 34.0638 7.69866 34.4936C7.74704 34.5662 7.81961 34.6691 7.86799 34.7539C7.93153 34.8378 7.98435 34.9293 8.02523 35.0263C8.0703 35.056 8.10596 35.098 8.12805 35.1473C8.12805 35.1837 8.07362 35.2018 8.02523 35.2321L7.76518 35.4923C7.76518 35.4923 7.73494 35.5408 7.69866 35.5771C7.6555 35.6315 7.61513 35.6881 7.5777 35.7466C7.47489 35.8676 7.33578 36.0432 7.21483 36.2127C6.95691 36.5513 6.72251 36.9072 6.51328 37.278C6.51328 37.3446 6.44675 37.4112 6.42861 37.4656V37.5504L6.46489 37.5867C6.47253 37.59 6.48077 37.5918 6.48909 37.5918C6.49742 37.5918 6.50565 37.59 6.51328 37.5867C6.51328 37.5867 6.54957 37.5867 6.5798 37.5504C6.61004 37.5141 6.63424 37.502 6.67053 37.4838L6.87615 37.2598C7.0092 37.1025 7.1483 36.9148 7.23297 36.8301C7.24099 36.8112 7.25344 36.7946 7.26926 36.7816C7.64422 36.3821 8.02523 36.0069 8.4002 35.6316C9.19326 37.0707 9.83573 38.588 10.3174 40.1592L10.7286 41.2912C10.9524 41.8601 11.2124 42.5018 11.4362 43.0586C11.5874 43.4037 11.7084 43.6942 11.793 43.8334C11.8195 43.8597 11.8437 43.888 11.8656 43.9182C11.8656 43.9182 11.8656 43.9182 11.8958 43.9182H11.9321C11.9321 43.9182 11.9321 43.9182 11.9321 43.8819C11.9303 43.8536 11.9303 43.8253 11.9321 43.7971C11.8892 43.7035 11.8548 43.6063 11.8293 43.5066C11.7446 43.2463 11.6237 42.9013 11.4846 42.4957C11.2306 41.7028 10.8798 40.7282 10.6802 40.02C10.529 39.56 10.4262 39.215 10.3899 39.1302C9.77447 37.2066 8.90388 35.3743 7.80147 33.6825C6.94268 32.3085 5.98712 31.1221 5.38234 29.6149C4.89169 28.411 4.46969 27.1803 4.11835 25.9286C3.92079 25.2557 3.75929 24.5727 3.63452 23.8826C3.75548 24.1913 3.87643 24.5364 4.02762 24.8451C4.1975 25.2654 4.43669 25.6541 4.73522 25.9951C4.9425 26.2021 5.21273 26.3342 5.50329 26.3704C5.78763 26.3965 6.07426 26.3614 6.34394 26.2675C6.66647 26.1713 6.96805 26.0152 7.23297 25.8075C7.57013 25.5589 7.80805 25.1985 7.90428 24.7906C7.99627 24.4123 7.9795 24.0157 7.8559 23.6466C7.78332 23.4226 7.69866 23.1805 7.59584 22.9384L7.42651 22.6296L7.11806 22.0667C6.9051 21.6671 6.66463 21.2828 6.39837 20.9166C6.35852 20.8532 6.31188 20.7944 6.25927 20.7411L6.19274 20.7108C6.19274 20.7108 6.19275 20.7108 6.15646 20.7108C6.15646 20.7108 6.15646 20.7108 6.15646 20.7411C6.16695 20.7489 6.17562 20.7589 6.18188 20.7704C6.18815 20.7819 6.19185 20.7946 6.19274 20.8077C6.24035 20.8845 6.28084 20.9656 6.3137 21.0498C6.41651 21.2738 6.54957 21.5462 6.70681 21.873C6.99711 22.4783 7.31159 23.2107 7.47488 23.5739C7.50607 23.6461 7.53038 23.7211 7.54746 23.7979C7.60353 24.0124 7.61255 24.2366 7.57393 24.4549C7.5353 24.6733 7.44993 24.8807 7.32368 25.063C7.07744 25.4163 6.71956 25.6764 6.30765 25.8015C6.167 25.8576 6.01753 25.8883 5.86617 25.8922C5.69303 25.9205 5.51549 25.9017 5.3521 25.8378C5.20696 25.79 5.07601 25.7068 4.97108 25.5956C4.73924 25.3363 4.54945 25.0422 4.40864 24.724C4.07397 24.1846 3.80399 23.6076 3.60428 23.005C3.50397 22.6905 3.47302 22.358 3.51357 22.0304C3.54397 21.6725 3.67318 21.3302 3.88678 21.0416C4.10038 20.753 4.38995 20.5295 4.72313 20.3961L5.00132 20.3477C5.49587 20.2956 5.99406 20.4038 6.42256 20.6564C6.86304 20.9015 7.25791 21.221 7.58979 21.6006C8.8245 22.9553 9.86835 24.4725 10.6923 26.1101C11.073 26.9087 11.3768 27.7417 11.5995 28.5979C11.8781 29.3998 12.2582 30.1626 12.7304 30.8678C13.3766 31.9048 14.1176 32.8795 14.9439 33.7793C15.1496 34.0033 15.3915 34.2999 15.6273 34.5541C15.8567 34.806 16.124 35.0205 16.4196 35.1897C17.2058 35.5468 18.0828 35.7405 18.8387 36.0976C19.8606 36.5635 20.8471 37.1037 21.7901 37.7138C23.4566 38.7524 24.8684 40.153 25.9207 41.8117C26.6118 43.0379 27.1424 44.3481 27.4992 45.7099C27.7532 46.5997 27.9407 47.5258 28.104 48.4337C28.104 48.5185 28.1524 48.8454 28.2189 49.2933C28.2733 49.6201 28.3399 51.4542 28.3399 52.5014C28.4792 52.4008 28.6069 52.285 28.7209 52.1563C28.7209 51.6963 28.5818 50.0499 28.5455 49.7351C28.4971 49.1661 28.4427 48.7424 28.4245 48.6214C28.2599 47.5101 28.0256 46.4103 27.723 45.3285C27.4105 44.1636 26.9745 43.0354 26.4227 41.963C26.0598 41.2912 25.6002 40.6919 25.2131 40.0382C24.7751 39.2178 24.2478 38.4484 23.6407 37.7441C22.055 36.0126 20.2707 34.4746 18.3247 33.1619C15.7181 31.3097 13.0631 28.8885 11.8293 25.7288L11.6237 25.2143C11.1036 23.81 10.6439 22.3694 10.1964 20.9409C10.0754 20.5837 9.86982 20.1358 9.75491 19.7303C9.71009 19.5802 9.67972 19.4261 9.6642 19.2702C9.66349 19.1864 9.68211 19.1035 9.71863 19.0281C9.71863 18.9797 9.76701 18.9252 9.78515 18.8768C9.99078 18.4289 10.1964 17.9809 10.3899 17.5209C10.8776 16.2843 11.2817 15.0164 11.5995 13.7256C11.9442 12.2366 12.2527 10.6023 11.8414 9.09507C11.8051 9.01033 11.787 8.92559 11.7567 8.83479C11.4836 7.98228 10.9264 7.24939 10.1783 6.75859C10.0936 6.71017 10.0029 6.64358 9.88796 6.58911C9.79312 6.53726 9.68752 6.50825 9.57953 6.50437C9.57097 6.50053 9.56169 6.49854 9.55231 6.49854C9.54293 6.49854 9.53365 6.50053 9.52509 6.50437C9.41253 6.55358 9.3176 6.63591 9.25294 6.74043C9.17186 6.84747 9.1029 6.96319 9.04732 7.08546C9.01351 7.13471 8.98512 7.18748 8.96265 7.24284C8.82355 7.47891 8.6663 7.72103 8.53325 7.96316C8.48137 8.06968 8.43495 8.17876 8.39415 8.29001C8.32763 8.40501 8.25505 8.54425 8.18853 8.64715C8.15579 8.70504 8.11508 8.758 8.06757 8.80452C8.06757 8.80452 8.01919 8.80452 7.9829 8.80452C7.94273 8.8094 7.90211 8.8094 7.86194 8.80452H7.60793H7.45069L7.19668 8.85295C7.14225 8.88927 7.07572 8.90742 7.02129 8.93769C6.80732 9.0894 6.64147 9.29953 6.54352 9.54299C6.40442 9.77906 6.28951 10.0575 6.1867 10.2451C5.87826 10.8141 5.58191 11.3952 5.27347 11.9582C4.66869 13.1082 4.06391 14.2583 3.45913 15.4084C2.39471 17.4543 1.30006 19.5123 0.435218 21.6733C0.0796274 22.6401 -0.0607214 23.673 0.0239704 24.6998C0.16307 29.1972 0.937194 33.6765 1.46335 38.1375C1.46335 38.2586 1.51778 38.3918 1.53593 38.4947C1.70733 39.0045 1.97415 39.4769 2.32214 39.8869C3.02941 40.7686 3.79733 41.5999 4.62031 42.3747C6.21685 43.9187 7.9316 45.3354 9.74887 46.6118C11.3084 47.6799 12.7391 48.925 14.0126 50.3223L13.9581 50.2981Z" fill="#E9838D"/>
<path d="M38.0767 6.97117V6.94091C38.0457 6.90261 38.0174 6.86214 37.9921 6.81985C37.7724 6.57324 37.5102 6.36821 37.2179 6.21454C37.072 6.14805 36.9172 6.10319 36.7583 6.08138C36.6041 6.06656 36.4489 6.09596 36.3108 6.16613L36.2624 6.21454C36.2315 6.23238 36.2058 6.25794 36.1878 6.28871C36.1698 6.31948 36.16 6.35442 36.1596 6.39009C36.1571 6.42427 36.1618 6.45858 36.1732 6.49087C36.1847 6.52317 36.2027 6.55274 36.2261 6.57773C36.2557 6.60635 36.2908 6.62862 36.3293 6.64319C36.3677 6.65777 36.4088 6.66433 36.4499 6.66248C36.9937 6.6572 37.5335 6.7558 38.0404 6.95301C38.0404 6.95301 38.0404 6.95301 38.0767 6.95301V6.97117Z" fill="#E9838D"/>
<path d="M29.7309 7.66017L29.1866 7.45436C29.0827 7.53743 29.0011 7.64516 28.9494 7.76779C28.8976 7.89041 28.8773 8.02404 28.8903 8.15652C28.886 8.16388 28.8838 8.17222 28.8838 8.18072C28.8838 8.18922 28.886 8.19757 28.8903 8.20493C28.8988 8.20878 28.9081 8.21075 28.9175 8.21075C28.9269 8.21075 28.9361 8.20878 28.9447 8.20493C28.9663 8.21231 28.9897 8.21231 29.0112 8.20493C29.0112 8.20493 29.0112 8.20494 29.0112 8.17468C29.0488 8.06206 29.1131 7.96026 29.1987 7.87807C29.2666 7.82321 29.3419 7.77836 29.4225 7.7449C29.4913 7.70323 29.5671 7.67452 29.6462 7.66017H29.7128H29.7672H29.8156C29.867 7.64718 29.9146 7.62231 29.9547 7.58753C30.0014 7.54238 30.0313 7.48257 30.0394 7.41805C30.0382 7.35743 30.0193 7.29848 29.9849 7.24856C29.9653 7.22289 29.9395 7.20271 29.9098 7.18999C29.8801 7.17726 29.8477 7.17241 29.8156 7.17591C29.5643 7.18677 29.3265 7.2928 29.1503 7.47252L29.7309 7.66017Z" fill="#E9838D"/>
<path d="M42.1953 11.1771H42.159L42.0925 11.2437C42.0496 11.275 42.0146 11.316 41.9905 11.3633C41.9663 11.4106 41.9536 11.463 41.9534 11.5161C41.9504 11.6627 41.975 11.8084 42.0259 11.9459C42.0445 12.003 42.0732 12.0563 42.1106 12.1033C42.1627 12.1579 42.2269 12.1993 42.2981 12.2243C42.3596 12.2402 42.4241 12.2402 42.4856 12.2243C42.5519 12.2057 42.6123 12.1703 42.661 12.1214C42.76 12.0457 42.8269 11.9355 42.8484 11.8127C42.8577 11.7068 42.8389 11.6003 42.794 11.504C42.7721 11.4596 42.7435 11.4188 42.7093 11.3829V11.3466C42.9002 11.263 43.1146 11.2501 43.3141 11.3103C43.1275 11.2089 42.9212 11.149 42.7093 11.1348C42.634 11.1392 42.5602 11.1576 42.4916 11.1892C42.3991 11.2065 42.3108 11.2414 42.2316 11.2922L42.1953 11.1771Z" fill="#E9838D"/>
<path d="M22.4795 29.1435H22.4432C22.4276 29.1781 22.4049 29.209 22.3767 29.2343C22.3291 29.2738 22.274 29.3033 22.2148 29.3209C22.1556 29.3386 22.0934 29.3442 22.032 29.3372C21.9292 29.3329 21.8319 29.2896 21.7598 29.2162C21.7598 29.1798 21.7235 29.1617 21.7114 29.1314C21.7114 29.1314 21.7114 29.1314 21.6751 29.1314C21.6633 29.1859 21.6648 29.2424 21.6795 29.2962C21.6943 29.35 21.7218 29.3993 21.7598 29.4401C21.8249 29.5034 21.9006 29.5546 21.9836 29.5914C22.0924 29.6373 22.2122 29.6502 22.3282 29.6287C22.4443 29.6072 22.5515 29.5522 22.6367 29.4704C22.6815 29.4302 22.722 29.3856 22.7577 29.3372C22.7751 29.3055 22.7855 29.2704 22.7879 29.2343C22.7879 29.198 22.7879 29.1798 22.7396 29.1435C22.6912 29.1072 22.673 29.0951 22.6367 29.077C22.6111 29.0764 22.5856 29.0809 22.5617 29.0902C22.5378 29.0996 22.5161 29.1136 22.4976 29.1314L22.4795 29.1435Z" fill="#E9838D"/>
<path d="M37.6173 9.7374C37.6162 9.81427 37.5859 9.88785 37.5326 9.9432C37.4933 9.97502 37.4441 9.99216 37.3935 9.99163C37.3564 9.99725 37.3185 9.99416 37.2828 9.9826C37.2471 9.97105 37.2146 9.95133 37.1879 9.92504C37.161 9.88312 37.1444 9.8354 37.1395 9.78582C37.1361 9.74723 37.1421 9.70843 37.1568 9.67262C37.1715 9.63681 37.1946 9.60504 37.2242 9.58001C37.2429 9.56296 37.2649 9.5499 37.2888 9.54157C37.3127 9.53325 37.338 9.52985 37.3633 9.5316C37.4004 9.52497 37.4385 9.52758 37.4744 9.53919C37.5102 9.5508 37.5427 9.57105 37.5689 9.59817C37.5931 9.64134 37.6095 9.68849 37.6173 9.7374ZM37.1879 8.63574C36.8876 8.70813 36.6107 8.85607 36.3835 9.06552C36.1977 9.22319 36.0455 9.41668 35.936 9.63449C35.896 9.73039 35.8755 9.83325 35.8755 9.93714C35.8755 10.041 35.896 10.1439 35.936 10.2398H35.9662C36.0632 9.95067 36.2221 9.68625 36.4319 9.465C36.627 9.32735 36.85 9.23436 37.0851 9.19263C37.0492 9.25781 37.0208 9.32685 37.0004 9.39843C36.9597 9.52707 36.9522 9.66391 36.9787 9.79621C37.0051 9.92852 37.0646 10.052 37.1516 10.1551C37.2444 10.2704 37.3715 10.3531 37.5145 10.3911C37.638 10.423 37.7672 10.426 37.892 10.3998C38.0168 10.3735 38.1339 10.3188 38.2341 10.2398C38.3632 10.1789 38.5029 10.1439 38.6454 10.1369H38.7663H38.8026H38.8329C38.8329 10.1369 38.8329 10.1369 38.8329 10.1006C38.8494 10.0228 38.8494 9.94233 38.8329 9.86451C38.7593 9.5572 38.6189 9.26992 38.4216 9.02315C38.4216 8.98683 38.3732 8.9505 38.3369 8.93839C37.9997 8.69542 37.5803 8.59537 37.1697 8.65996L37.1879 8.63574Z" fill="#E9838D"/>
<path d="M30.4689 10.1125C30.4689 10.0459 30.4689 9.9551 30.5535 9.92484C30.5877 9.8916 30.6291 9.86674 30.6745 9.8522C30.7106 9.85196 30.7463 9.86003 30.7788 9.87577C30.8113 9.89152 30.8398 9.91451 30.862 9.94299C30.8795 9.95645 30.8936 9.9739 30.9031 9.9939C30.9126 10.0139 30.9171 10.0359 30.9164 10.058C30.9248 10.0957 30.9225 10.1349 30.9096 10.1713C30.8968 10.2077 30.874 10.2398 30.8438 10.2638C30.8094 10.2892 30.7704 10.3077 30.7289 10.3183C30.6907 10.3191 30.6527 10.312 30.6173 10.2974C30.5819 10.2828 30.5499 10.2611 30.5233 10.2335C30.5233 10.1972 30.4689 10.1609 30.4689 10.1125ZM30.8983 9.10163C30.6878 9.09289 30.4777 9.12641 30.2803 9.20022C30.083 9.27403 29.9024 9.38663 29.7492 9.53139C29.7088 9.57647 29.6619 9.61524 29.6101 9.6464C29.4033 9.87772 29.2891 10.1773 29.2896 10.4878C29.2896 10.4878 29.2896 10.4878 29.2896 10.4514C29.3028 10.3688 29.3384 10.2914 29.3924 10.2275C29.4672 10.1116 29.5589 10.0075 29.6645 9.91878C29.8844 9.72669 30.1517 9.5971 30.4386 9.54349C30.3522 9.67691 30.3119 9.83502 30.3239 9.99357C30.336 10.1521 30.3996 10.3023 30.5052 10.4212C30.5546 10.4739 30.6116 10.5188 30.6745 10.5544C30.7828 10.6222 30.9099 10.654 31.0374 10.6451C31.1643 10.6247 31.2835 10.5704 31.3821 10.4878C31.4587 10.4034 31.5275 10.3122 31.5877 10.2154C31.5998 10.1817 31.6099 10.1473 31.618 10.1125C31.668 9.9864 31.682 9.8489 31.6585 9.7153C31.635 9.58171 31.5749 9.45727 31.4849 9.35585C31.4038 9.26268 31.3033 9.1884 31.1905 9.13821C31.0776 9.08802 30.9552 9.06315 30.8317 9.06532L30.8983 9.10163Z" fill="#E9838D"/>
<path d="M33.1421 11.4133C33.0772 11.4035 33.011 11.4163 32.9546 11.4497C32.898 11.465 32.8461 11.4942 32.8034 11.5344C32.8034 11.5344 32.8034 11.5344 32.7671 11.5344V11.5707H32.7973C32.8248 11.5615 32.8545 11.5615 32.882 11.5707L32.9364 11.6252C32.9613 11.6512 32.9836 11.6796 33.003 11.71L33.0755 11.7765C33.1058 11.7765 33.1239 11.7765 33.1602 11.7765C33.2455 11.7779 33.3295 11.7548 33.4021 11.71C33.4021 11.71 33.4021 11.6736 33.4021 11.6555C33.4102 11.6278 33.4102 11.5984 33.4021 11.5707C33.4021 11.5344 33.4021 11.5223 33.3537 11.486L33.2328 11.3831C33.194 11.3495 33.1449 11.3303 33.0937 11.3286L33.1421 11.4133Z" fill="#E9838D"/>
</svg>
